<svg width="266" height="51" viewBox="0 0 266 51" fill="none" xmlns="http://www.w3.org/2000/svg">
<path d="M94.5892 37.0905V43.6106H90.6445C88.2933 43.7445 85.9743 43.014 84.1244 41.5568C82.545 40.1803 81.759 37.9381 81.7662 34.8302V24.7674H78.6909V18.3342H81.7662V12.1727H89.5143V18.3342H94.5892V24.7674H89.5143V34.9171C89.4854 35.2117 89.5188 35.5091 89.6124 35.79C89.706 36.0708 89.8577 36.3288 90.0577 36.5471C90.5802 36.932 91.2266 37.11 91.8724 37.047L94.5892 37.0905Z" fill="#CE9548"/>
<path d="M121.583 18.3776V43.654H113.835V40.2092C113.014 41.3627 111.915 42.2898 110.64 42.9042C109.258 43.597 107.73 43.9473 106.184 43.9257C104.393 43.9658 102.624 43.5189 101.066 42.6325C99.5725 41.7604 98.3732 40.4626 97.6212 38.9051C96.7728 37.1062 96.3561 35.1341 96.4041 33.1457V18.3776H104.054V32.1025C103.963 33.5383 104.435 34.9533 105.369 36.0472C106.333 36.9478 107.603 37.4488 108.923 37.4488C110.242 37.4488 111.512 36.9478 112.476 36.0472C113.411 34.9533 113.883 33.5383 113.791 32.1025V18.3776H121.583Z" fill="#CE9548"/>
<path d="M164.637 20.9641C165.605 22.0331 166.351 23.2842 166.83 24.6443C167.31 26.0044 167.514 27.4463 167.43 28.886V43.6541H159.725V29.9292C159.812 28.5471 159.347 27.187 158.432 26.1475C157.445 25.2941 156.184 24.8245 154.879 24.8245C153.574 24.8245 152.313 25.2941 151.325 26.1475C150.41 27.187 149.945 28.5471 150.032 29.9292V43.6541H142.328V29.9292C142.417 28.5486 141.956 27.1887 141.045 26.1475C140.057 25.2912 138.794 24.8198 137.486 24.8198C136.179 24.8198 134.915 25.2912 133.927 26.1475C133.012 27.187 132.547 28.5471 132.634 29.9292V43.6541H124.886V18.3777H132.634V21.5508C133.447 20.4785 134.505 19.6174 135.721 19.0406C137.077 18.3957 138.565 18.0758 140.067 18.1061C141.843 18.0773 143.596 18.4998 145.164 19.334C146.643 20.1377 147.861 21.3482 148.674 22.8223C149.568 21.4117 150.796 20.2433 152.249 19.4209C153.747 18.5506 155.45 18.0966 157.183 18.1061C158.555 18.0454 159.925 18.2679 161.207 18.7595C162.49 19.2512 163.657 20.0016 164.637 20.9641Z" fill="#CE9548"/>
<path d="M171.157 14.5525C170.751 14.1677 170.428 13.7043 170.207 13.1905C169.986 12.6767 169.873 12.1233 169.873 11.5641C169.873 11.0049 169.986 10.4515 170.207 9.93776C170.428 9.42398 170.751 8.96053 171.157 8.57571C172.07 7.75479 173.267 7.32209 174.493 7.36951C175.695 7.33168 176.865 7.76443 177.753 8.57571C178.162 8.95888 178.488 9.42177 178.71 9.93577C178.933 10.4498 179.048 11.004 179.048 11.5641C179.048 12.1243 178.933 12.6785 178.71 13.1925C178.488 13.7065 178.162 14.1693 177.753 14.5525C176.864 15.3608 175.694 15.7898 174.493 15.7479C173.268 15.7994 172.071 15.3705 171.157 14.5525ZM178.34 18.3777V43.654H170.592V18.3777H178.34Z" fill="#CE9548"/>
<path d="M186.491 10.1406V43.6541H182.372V10.1406H186.491Z" fill="#CE9548"/>
<path d="M191.25 24.4739C192.218 22.6182 193.686 21.0709 195.488 20.0076C197.307 18.9447 199.38 18.3962 201.487 18.421C203.468 18.367 205.425 18.8555 207.148 19.8337C208.645 20.6604 209.885 21.8821 210.735 23.3655V18.834H214.897V43.6539H210.735V39.0355C209.863 40.541 208.602 41.7837 207.083 42.6325C205.369 43.6145 203.419 44.1104 201.443 44.0669C199.338 44.0937 197.267 43.529 195.467 42.4368C193.668 41.3274 192.209 39.7447 191.25 37.8619C190.2 35.7852 189.67 33.4841 189.707 31.157C189.659 28.8358 190.189 26.539 191.25 24.4739ZM209.594 26.3104C208.898 24.978 207.84 23.8702 206.54 23.1155C205.249 22.3823 203.786 22.0072 202.302 22.0288C200.828 22.0088 199.376 22.384 198.096 23.1155C196.801 23.8626 195.746 24.9633 195.054 26.2887C194.286 27.8015 193.913 29.4833 193.967 31.1788C193.913 32.8951 194.286 34.5979 195.054 36.134C195.741 37.4855 196.795 38.6155 198.096 39.3941C199.374 40.1296 200.828 40.5051 202.302 40.4808C203.786 40.5024 205.249 40.1273 206.54 39.3941C207.849 38.6223 208.909 37.4908 209.594 36.134C210.381 34.6188 210.773 32.9294 210.735 31.2222C210.778 29.5145 210.385 27.8239 209.594 26.3104Z" fill="#CE9548"/>
<path d="M227.448 19.8339C229.142 18.8728 231.064 18.3849 233.012 18.4212C235.129 18.391 237.214 18.9396 239.043 20.0078C240.833 21.0758 242.29 22.6227 243.248 24.474C244.315 26.5372 244.845 28.8354 244.791 31.1572C244.834 33.4848 244.304 35.7872 243.248 37.8621C242.297 39.7535 240.832 41.3387 239.022 42.4361C237.211 43.5336 235.129 44.0988 233.012 44.067C231.04 44.1097 229.094 43.6258 227.372 42.6652C225.857 41.82 224.599 40.5809 223.731 39.0791V43.6541H219.613V10.1406H223.731V23.4526C224.622 21.9338 225.906 20.6836 227.448 19.8339ZM239.401 26.2671C238.711 24.9367 237.651 23.8346 236.348 23.094C235.055 22.3652 233.593 21.9903 232.11 22.0073C230.643 21.9901 229.199 22.3653 227.926 23.094C226.61 23.8675 225.54 24.9978 224.84 26.354C224.046 27.8518 223.65 29.5279 223.688 31.2224C223.647 32.9311 224.044 34.6218 224.84 36.1342C225.54 37.4904 226.61 38.6207 227.926 39.3943C229.199 40.123 230.643 40.4982 232.11 40.481C233.594 40.5026 235.057 40.1274 236.348 39.3943C237.657 38.6225 238.717 37.491 239.401 36.1342C240.192 34.6047 240.585 32.9004 240.542 31.1789C240.602 29.4748 240.224 27.7837 239.445 26.2671H239.401Z" fill="#CE9548"/>
<path d="M251.605 43.0889C250.204 42.5087 248.979 41.5722 248.051 40.3722C247.179 39.2106 246.675 37.8135 246.606 36.3623H250.866C250.911 36.985 251.089 37.5908 251.389 38.1384C251.689 38.6859 252.104 39.1624 252.604 39.5354C253.795 40.3899 255.238 40.8186 256.701 40.7525C258.035 40.8315 259.356 40.4477 260.44 39.6658C260.867 39.3416 261.211 38.9201 261.444 38.4364C261.676 37.9526 261.79 37.4204 261.776 36.8839C261.796 36.3834 261.67 35.888 261.413 35.4578C261.156 35.0276 260.781 34.6812 260.331 34.4606C258.898 33.7726 257.393 33.2477 255.843 32.8957C254.319 32.5174 252.823 32.0345 251.366 31.4505C250.226 30.9697 249.216 30.2248 248.421 29.2771C247.565 28.2079 247.128 26.8634 247.193 25.4954C247.184 24.2177 247.563 22.9675 248.279 21.9093C249.066 20.7712 250.159 19.8784 251.431 19.3339C252.937 18.6723 254.568 18.346 256.212 18.3776C258.606 18.2643 260.963 19.0036 262.863 20.464C263.704 21.1595 264.383 22.0305 264.853 23.016C265.322 24.0015 265.57 25.0776 265.58 26.1691H261.461C261.442 25.5467 261.293 24.9351 261.023 24.3737C260.754 23.8122 260.37 23.3133 259.896 22.9091C258.822 22.1571 257.552 21.735 256.241 21.6945C254.93 21.6539 253.636 21.9968 252.518 22.6809C252.107 22.9836 251.775 23.3805 251.55 23.8382C251.325 24.2958 251.214 24.8008 251.224 25.3107C251.21 25.6925 251.275 26.0732 251.415 26.4286C251.555 26.784 251.768 27.1064 252.039 27.3754C252.606 27.9202 253.285 28.3354 254.028 28.5925C254.821 28.8859 255.941 29.2336 257.386 29.6792C258.866 30.0569 260.318 30.5362 261.733 31.1136C262.813 31.578 263.775 32.28 264.547 33.1674C265.364 34.1957 265.781 35.485 265.721 36.7969C265.747 38.1178 265.368 39.415 264.634 40.5134C263.84 41.6445 262.749 42.5354 261.483 43.0889C259.987 43.7568 258.361 44.0835 256.723 44.0452C254.969 44.0848 253.226 43.7591 251.605 43.0889Z" fill="#CE9548"/>
<path d="M34.5062 8.61916C41.0397 8.61904 47.3263 11.1157 52.0796 15.5983C56.8329 20.0809 59.6934 26.2105 60.076 32.7328H68.3891C67.9495 24.0688 64.1982 15.9049 57.9104 9.92807C51.6227 3.9513 43.2791 0.61853 34.604 0.61853C25.9289 0.61853 17.5853 3.9513 11.2975 9.92807C5.0098 15.9049 1.25848 24.0688 0.818848 32.7328H8.94728C9.3297 26.2123 12.1887 20.0843 16.9397 15.602C21.6906 11.1197 27.9745 8.62181 34.5062 8.61916Z" fill="#CE9548"/>
<path d="M24.7261 36.7101H32.4416V51C29.8234 50.832 27.2339 50.3578 24.7261 49.5873V36.7101Z" fill="#CE9548"/>
<path d="M44.2863 36.7101H36.5708V51C39.189 50.832 41.7784 50.3578 44.2863 49.5873V36.7101Z" fill="#CE9548"/>
<path d="M20.5965 32.7328C20.9585 29.2584 22.595 26.0414 25.1899 23.7028C27.7848 21.3642 31.1542 20.07 34.6474 20.07C38.1406 20.07 41.51 21.3642 44.1049 23.7028C46.6998 26.0414 48.3363 29.2584 48.6983 32.7328H56.2399C55.7854 27.3275 53.3171 22.2901 49.3241 18.6186C45.331 14.9471 40.1044 12.9096 34.68 12.9096C29.2556 12.9096 24.0291 14.9471 20.036 18.6186C16.0429 22.2901 13.5746 27.3275 13.1201 32.7328H20.5965Z" fill="#CE9548"/>
<path d="M43.6015 32.7328C43.191 30.6599 42.074 28.7935 40.4411 27.4522C38.8081 26.1109 36.7604 25.3778 34.6472 25.3778C32.534 25.3778 30.4862 26.1109 28.8533 27.4522C27.2203 28.7935 26.1034 30.6599 25.6929 32.7328H43.6015Z" fill="#CE9548"/>
<path d="M56.2291 36.6664H48.6875V49.5437L56.2291 36.6338V36.6664Z" fill="#CE9548"/>
<path d="M20.477 36.6665H13.1201L20.477 49.6089V36.6665Z" fill="#CE9548"/>
</svg>
