<?xml version="1.0" standalone="no"?>
<!DOCTYPE svg PUBLIC "-//W3C//DTD SVG 20010904//EN"
 "http://www.w3.org/TR/2001/REC-SVG-20010904/DTD/svg10.dtd">
<svg version="1.0" xmlns="http://www.w3.org/2000/svg"
 width="144.000000pt" height="144.000000pt" viewBox="0 0 144.000000 144.000000"
 preserveAspectRatio="xMidYMid meet">
<metadata>
Created by potrace 1.14, written by Peter Selinger 2001-2017
</metadata>
<g transform="translate(0.000000,144.000000) scale(0.100000,-0.100000)"
fill="#000000" stroke="none">
<path d="M591 1250 c-252 -53 -453 -220 -542 -450 -25 -65 -45 -153 -45 -195
l1 -30 83 0 c76 -1 83 1 86 20 30 163 66 236 161 330 69 70 146 117 240 146
68 22 239 16 315 -10 184 -64 329 -230 364 -418 l12 -68 88 0 87 -1 -6 46
c-11 91 -28 147 -70 235 -88 181 -244 315 -440 375 -79 24 -261 35 -334 20z"/>
<path d="M650 993 c-184 -30 -340 -178 -379 -361 -6 -29 -11 -54 -11 -55 0 -7
147 -1 158 6 6 5 12 17 12 28 0 30 45 111 82 148 84 84 222 108 330 58 84 -39
131 -90 163 -179 l23 -63 76 -1 c86 0 85 -2 62 82 -40 152 -170 285 -315 324
-46 12 -160 20 -201 13z"/>
<path d="M636 713 c-42 -22 -75 -58 -92 -98 -7 -19 -14 -36 -14 -38 0 -1 86
-3 190 -2 l191 0 -6 25 c-10 39 -52 88 -95 110 -48 24 -133 26 -174 3z"/>
<path d="M283 453 c13 -21 41 -69 62 -108 81 -148 75 -149 75 8 l0 137 -80 0
-80 0 23 -37z"/>
<path d="M510 351 l0 -139 38 -7 c20 -4 51 -9 67 -12 17 -2 36 -6 43 -8 7 -3
12 5 13 18 3 70 4 264 1 275 -3 8 -29 12 -83 12 l-79 0 0 -139z"/>
<path d="M762 344 c0 -122 2 -146 15 -151 16 -6 131 12 142 22 3 4 7 67 7 141
l2 134 -83 0 -82 0 -1 -146z"/>
<path d="M1020 353 l0 -138 61 105 c33 58 70 120 81 138 l20 32 -81 0 -81 0 0
-137z"/>
</g>
</svg>
